PathFileType	4	(X/Y/Z)	C:\Users\gl24\Desktop\Patient 1 Synergy Driven Model\NMS_Pipeline_Results_NewModel\Right\TRC Data (Extra Frame)\Patient3_NormalGait_1pt2_02_Right_25.trc.trc
DataRate	CameraRate	NumFrames	NumMarkers	Units	OrigDataRate	OrigDataStartFrame	OrigNumFrames
87.500000000000	87.500000000000	4	33	mm	87.500000000000	72	       142
Frame#	Time	L.Toe			R.Toe			L.Heel			Neck			R.Shoulder			L.Shank.Lateral			R.Shank.Lateral			R.Midfoot.Lateral			L.Shoulder			R.Midfoot.Superior			R.Elbow			L.Wrist			L.Elbow			R.Heel			R.Wrist			L.Midfoot.Superior			R.Thigh.Superior			Sternum			R.Shank.Superior			R.Shank.Inferior			L.Thigh.Superior			R.Patella			L.Midfoot.Lateral			L.Shank.Inferior			L.Patella			R.Thigh.Inferior			R.Thigh.Lateral			L.Thigh.Inferior			L.Thigh.Lateral			R.Asis			L.Asis			L.Shank.Superior			Sacral			
		X1	Y1	Z1	X2	Y2	Z2	X3	Y3	Z3	X4	Y4	Z4	X5	Y5	Z5	X6	Y6	Z6	X7	Y7	Z7	X8	Y8	Z8	X9	Y9	Z9	X10	Y10	Z10	X11	Y11	Z11	X12	Y12	Z12	X13	Y13	Z13	X14	Y14	Z14	X15	Y15	Z15	X16	Y16	Z16	X17	Y17	Z17	X18	Y18	Z18	X19	Y19	Z19	X20	Y20	Z20	X21	Y21	Z21	X22	Y22	Z22	X23	Y23	Z23	X24	Y24	Z24	X25	Y25	Z25	X26	Y26	Z26	X27	Y27	Z27	X28	Y28	Z28	X29	Y29	Z29	X30	Y30	Z30	X31	Y31	Z31	X32	Y32	Z32	X33	Y33	Z33	

72	29.131428571429	1071.211163317493	156.920779961535	379.219943491968	471.160427667324	30.634572234949	548.419649795685	814.233130216982	30.059082323191	440.878726500634	510.075873973471	1444.279089935239	494.716692331268	586.072219695640	1405.718762171058	651.923475892707	737.455434187556	327.671384372951	332.005666809446	371.280096516675	366.624463429913	640.655528489761	265.342321948879	60.037236243707	587.684539826875	571.834370969968	1415.158230531853	334.353690281188	365.963787386802	95.268148672448	547.638152656710	661.039673259455	1066.516071938978	769.608329808730	510.710610561758	834.554491265976	222.503839320197	470.664120260201	1088.865659085091	245.272049622465	186.041009929721	92.368928908837	527.185164725650	889.622739838657	951.174328855715	765.673243770766	947.409904982498	147.572742921904	395.836933690219	628.116929600804	686.841175580719	614.620055982252	669.176967818368	1354.428716567955	484.295766427070	465.331076920542	377.248578820738	592.693539061093	376.631457158528	223.132306603090	566.414702579042	718.180967096937	742.924259244618	357.126101569387	533.055211629811	466.658871360322	581.728545922050	886.760659701655	51.080162162781	371.964797842323	848.017045589846	268.151498071863	388.472114829142	801.281470987200	529.930933245484	389.553381605902	588.579572245319	580.106410424326	595.668839160350	522.977884977899	655.663449372285	658.071024478709	754.065496499873	632.683789739039	368.182865983069	654.781411963361	648.449672194977	305.787496914256	636.436833105227	959.256310724342	610.588673089820	635.053514653900	942.763919054432	350.776299161087	801.705794537748	416.492352286717	369.329856372929	458.881487237812	970.964741343754	484.750453714801	
73	29.142857142857	1064.923368228865	147.611934836294	381.222838823482	457.539609409160	30.615590229722	548.296732072329	804.918035110238	29.077023378430	442.039777401089	510.176286317872	1442.525605733501	493.349862814166	585.989994724692	1403.927763273232	650.695688836509	737.316905834000	326.414608679398	332.488699590189	366.933903607730	367.787098431367	640.192373496783	253.089245664255	63.197359276969	587.678892879244	572.207573368149	1413.638788279952	333.033672500119	354.895384900349	95.543007558311	548.079320483209	660.211298335668	1064.425198476520	768.283516126045	510.788552467533	832.969179314500	221.240526473659	471.111694651071	1087.380300751915	243.732299524316	174.775374144585	98.168161626294	527.306235175945	888.943131826931	949.352524331181	764.488630054749	941.204890498790	141.919404048397	397.856879492972	627.921646514890	685.066795797771	614.064879450712	669.506036367673	1353.019720291396	483.110187673635	461.331734962521	375.941671517152	592.371587455331	368.679470983719	224.055143570430	566.571118362598	720.628241073988	744.247052436394	356.178112446907	531.848556692445	464.541415888371	581.780884283456	877.876894607206	47.869731745297	373.216723349641	845.305703284254	264.543717895343	390.575753394273	803.919689982271	528.869297849019	389.726493485670	588.105153372461	578.388271351481	595.232742061849	522.505827670828	654.456917222889	657.111622276556	757.101278980321	634.231282661198	367.623534348087	659.368452070385	648.384076375672	306.340726881614	637.764299084085	957.395057976464	609.455046802273	636.540312770884	941.140188103579	349.554113482709	802.888199381998	413.843578726804	370.719158998365	460.199576663558	969.254433940162	483.364429380444	
74	29.154285714286	1057.548530506524	136.168076528242	383.570437441151	443.976369072690	30.662671141221	548.143595393953	793.657659343521	28.382274823605	442.947081860383	510.326197510709	1440.827841005760	491.895308236541	586.045299524850	1402.216935468362	649.349674098985	736.763787086470	325.038042006424	332.811596688536	363.248116593633	368.998069722528	639.625331186084	241.132688236305	66.752902075323	587.535014239286	572.578787569071	1412.201798953429	331.606519606060	344.208876483495	95.687231824902	548.433645365860	659.082948442197	1062.322090813537	766.855339000394	511.435062269809	831.431825164050	219.851640888917	471.819790840938	1085.877818941624	242.122975736818	164.080249217803	104.605464049088	527.204213289389	887.693020735789	946.958548760658	763.334881892457	933.951543949647	135.225420428294	399.971886195943	628.194788906790	683.297876377433	613.469342430131	669.920631060088	1351.744084893514	481.779092745611	458.013006230785	374.486100978430	592.177895865922	361.334543858866	225.065575118378	566.759241167529	724.305679679307	745.897292250667	355.183326309816	531.681516228060	462.231051602534	581.963053577750	867.249629923401	44.257080580307	374.358688366842	841.858254490078	260.501160313748	392.745811295301	806.518566765662	527.285265963210	390.183059346555	588.240622933932	576.640547500986	594.731513867152	522.547148736708	653.113037097324	656.076383523973	761.198702471894	635.387263144297	367.168960986999	664.539612104005	648.448484874640	307.260873773682	639.384652680918	955.543956167074	608.319546126132	638.520474382116	939.758252605572	348.352631484394	803.774317219167	410.879598411407	372.131778394937	461.886065531403	967.600212168946	481.934844705289	
75	29.165714285714	1049.481537004532	123.435499086635	386.131684558715	430.473217866173	30.741115600407	547.948971686391	781.220256242316	28.082905770672	443.578027887156	510.523080910254	1439.212464447841	490.351916833023	586.216853744196	1400.625906228894	647.895837273973	735.878728044531	323.594642027289	332.916543278785	360.319090322865	370.288532664234	638.946143033943	229.573809045575	70.821865746482	587.226524466853	572.964956070317	1410.865881661579	330.081335654319	333.950334003933	95.714381464151	548.664012160414	657.662682593212	1060.253131472215	765.321382354492	512.643986666513	829.963333368462	218.348791855625	472.797213039719	1084.380353893110	240.451180230104	154.136227769265	111.809306385630	526.840499516072	885.858959015691	944.002617979671	762.222289988018	926.078091026031	128.003526559316	402.037469916724	628.988014657447	681.532554016925	612.931776178308	670.420827115142	1350.637478189902	480.329081124151	455.473268496678	372.883676604840	592.149047928918	354.719226110733	226.187769966177	566.976968477152	728.996122709998	747.437441836974	354.115022037375	532.667598211000	459.706308476922	582.324555399624	855.583523342435	40.534427888757	375.352494531697	837.908803996846	256.309422678801	394.788506798592	808.903621063238	525.299270282098	390.806267938430	589.079577128481	574.841301957394	594.289968324178	523.115567672376	651.625943625106	654.993054002325	765.930770165695	635.809557133436	366.863497236003	669.778828018987	648.485058307822	308.334242839864	641.275183758842	953.741645684055	607.193286542951	640.971047681860	938.689841341141	347.197862691362	804.321603864861	407.773821408980	373.387457268947	463.915024092606	966.029908473054	480.441584430924	
